<svg xmlns="http://www.w3.org/2000/svg" width="40.425" height="40.425" viewBox="0 0 40.425 40.425">
  <g id="cart_icon" data-name="cart icon" transform="translate(0.25 0.25)">
    <path id="ic_shopping_cart_24px" d="M12.978,33.94a3.993,3.993,0,1,0,3.993,3.993A3.987,3.987,0,0,0,12.978,33.94ZM1,2V5.993H4.993l7.187,15.152L9.484,26.035a3.86,3.86,0,0,0-.5,1.916,4,4,0,0,0,3.993,3.993H36.933V27.951H13.816a.494.494,0,0,1-.5-.5l.06-.24,1.8-3.254H30.046A3.974,3.974,0,0,0,33.539,21.9L40.686,8.947a1.95,1.95,0,0,0,.24-.958,2,2,0,0,0-2-2H9.4L7.528,2H1ZM32.94,33.94a3.993,3.993,0,1,0,3.993,3.993A3.987,3.987,0,0,0,32.94,33.94Z" transform="translate(-1 -2)" fill="#37406e" stroke="#37406e" stroke-width="0.5"/>
  </g>
</svg>
