<?xml version="1.0" encoding="UTF-8"?>
<svg width="700pt" height="700pt" version="1.1" viewBox="0 0 700 700" xmlns="http://www.w3.org/2000/svg" xmlns:xlink="http://www.w3.org/1999/xlink">
 <defs>
  <symbol id="v" overflow="visible">
   <path d="m7.875-0.46875c-0.40625 0.21094-0.82812 0.36719-1.2656 0.46875-0.4375 0.11328-0.89844 0.17188-1.375 0.17188-1.4297 0-2.5586-0.39844-3.3906-1.2031-0.83594-0.80078-1.25-1.8828-1.25-3.25 0-1.375 0.41406-2.457 1.25-3.25 0.83203-0.80078 1.9609-1.2031 3.3906-1.2031 0.47656 0 0.9375 0.058594 1.375 0.17188 0.4375 0.10547 0.85938 0.26172 1.2656 0.46875v1.7812c-0.40625-0.28125-0.80859-0.48438-1.2031-0.60938-0.39844-0.13281-0.82031-0.20312-1.2656-0.20312-0.78125 0-1.4023 0.25781-1.8594 0.76562-0.44922 0.5-0.67188 1.1953-0.67188 2.0781 0 0.88672 0.22266 1.5859 0.67188 2.0938 0.45703 0.5 1.0781 0.75 1.8594 0.75 0.44531 0 0.86719-0.0625 1.2656-0.1875 0.39453-0.13281 0.79688-0.34375 1.2031-0.625z"/>
  </symbol>
  <symbol id="b" overflow="visible">
   <path d="m5.7656-4.6875c-0.17969-0.082031-0.35547-0.14062-0.53125-0.17188-0.17969-0.039063-0.35938-0.0625-0.54688-0.0625-0.52344 0-0.92969 0.17188-1.2188 0.51562-0.28125 0.33594-0.42188 0.8125-0.42188 1.4375v2.9688h-2.0625v-6.4375h2.0625v1.0625c0.25781-0.42578 0.5625-0.73438 0.90625-0.92188 0.34375-0.19531 0.75391-0.29688 1.2344-0.29688 0.070312 0 0.14453 0.007812 0.21875 0.015625 0.082031 0 0.20312 0.011719 0.35938 0.03125z"/>
  </symbol>
  <symbol id="a" overflow="visible">
   <path d="m7.4062-3.2344v0.59375h-4.7969c0.039063 0.48047 0.21094 0.83984 0.51562 1.0781 0.30078 0.24219 0.71875 0.35938 1.25 0.35938 0.4375 0 0.87891-0.0625 1.3281-0.1875 0.45703-0.125 0.92578-0.31641 1.4062-0.57812v1.5781c-0.49219 0.1875-0.98047 0.32812-1.4688 0.42188-0.48047 0.09375-0.96484 0.14062-1.4531 0.14062-1.168 0-2.0742-0.29688-2.7188-0.89062-0.64844-0.59375-0.96875-1.4258-0.96875-2.5 0-1.0391 0.31641-1.8633 0.95312-2.4688 0.63281-0.60156 1.5078-0.90625 2.625-0.90625 1.0078 0 1.8164 0.30859 2.4219 0.92188 0.60156 0.60547 0.90625 1.418 0.90625 2.4375zm-2.1094-0.6875c0-0.38281-0.11719-0.69531-0.34375-0.9375-0.23047-0.23828-0.52734-0.35938-0.89062-0.35938-0.39844 0-0.71875 0.11719-0.96875 0.34375-0.25 0.21875-0.40625 0.53906-0.46875 0.95312z"/>
  </symbol>
  <symbol id="f" overflow="visible">
   <path d="m3.875-2.8906c-0.42969 0-0.75 0.074219-0.96875 0.21875-0.21875 0.14844-0.32812 0.35938-0.32812 0.64062 0 0.26172 0.085937 0.46484 0.26562 0.60938 0.17578 0.14844 0.41406 0.21875 0.71875 0.21875 0.38281 0 0.70703-0.13281 0.96875-0.40625 0.26953-0.28125 0.40625-0.62891 0.40625-1.0469v-0.23438zm3.1406-0.78125v3.6719h-2.0781v-0.95312c-0.27344 0.38672-0.57812 0.67188-0.92188 0.85938-0.34375 0.17578-0.76562 0.26562-1.2656 0.26562-0.66797 0-1.2109-0.19141-1.625-0.57812-0.41797-0.39453-0.625-0.90625-0.625-1.5312 0-0.75 0.25781-1.3008 0.78125-1.6562 0.51953-0.35156 1.3359-0.53125 2.4531-0.53125h1.2031v-0.15625c0-0.32031-0.13281-0.55469-0.39062-0.70312-0.25-0.15625-0.64844-0.23438-1.1875-0.23438-0.44922 0-0.85938 0.046875-1.2344 0.14062-0.375 0.085937-0.73047 0.21484-1.0625 0.39062v-1.5781c0.44531-0.10156 0.89062-0.17969 1.3281-0.23438 0.44531-0.0625 0.89453-0.09375 1.3438-0.09375 1.1562 0 1.9883 0.23047 2.5 0.6875 0.51953 0.46094 0.78125 1.2031 0.78125 2.2344z"/>
  </symbol>
  <symbol id="d" overflow="visible">
   <path d="m3.2344-8.2656v1.8281h2.125v1.4688h-2.125v2.7344c0 0.30469 0.054687 0.50781 0.17188 0.60938 0.125 0.10547 0.36328 0.15625 0.71875 0.15625h1.0469v1.4688h-1.7656c-0.8125 0-1.3906-0.16406-1.7344-0.5-0.33594-0.34375-0.5-0.92188-0.5-1.7344v-2.7344h-1.0156v-1.4688h1.0156v-1.8281z"/>
  </symbol>
  <symbol id="k" overflow="visible">
   <path d="m5.3594-5.4844v-3.4531h2.0781v8.9375h-2.0781v-0.9375c-0.28125 0.38672-0.59375 0.66797-0.9375 0.84375-0.33594 0.17578-0.72656 0.26562-1.1719 0.26562-0.79297 0-1.4453-0.3125-1.9531-0.9375-0.51172-0.63281-0.76562-1.4531-0.76562-2.4531 0-0.98828 0.25391-1.7969 0.76562-2.4219 0.50781-0.63281 1.1602-0.95312 1.9531-0.95312 0.4375 0 0.82812 0.089844 1.1719 0.26562 0.34375 0.17969 0.65625 0.46094 0.9375 0.84375zm-1.3438 4.1562c0.4375 0 0.76953-0.16016 1-0.48438 0.22656-0.32031 0.34375-0.78906 0.34375-1.4062 0-0.60156-0.11719-1.0664-0.34375-1.3906-0.23047-0.32031-0.5625-0.48438-1-0.48438s-0.77734 0.16406-1.0156 0.48438c-0.23047 0.32422-0.34375 0.78906-0.34375 1.3906 0 0.61719 0.11328 1.0859 0.34375 1.4062 0.23828 0.32422 0.57812 0.48438 1.0156 0.48438z"/>
  </symbol>
  <symbol id="j" overflow="visible">
   <path d="m4.4062-1.3281c0.44531 0 0.78516-0.16016 1.0156-0.48438 0.22656-0.32031 0.34375-0.78906 0.34375-1.4062 0-0.60156-0.11719-1.0664-0.34375-1.3906-0.23047-0.32031-0.57031-0.48438-1.0156-0.48438-0.4375 0-0.77734 0.16406-1.0156 0.48438-0.23047 0.32422-0.34375 0.78906-0.34375 1.3906 0 0.61719 0.11328 1.0859 0.34375 1.4062 0.23828 0.32422 0.57812 0.48438 1.0156 0.48438zm-1.3594-4.1562c0.28125-0.38281 0.59375-0.66406 0.9375-0.84375 0.34375-0.17578 0.73828-0.26562 1.1875-0.26562 0.78906 0 1.4414 0.32031 1.9531 0.95312 0.50781 0.625 0.76562 1.4336 0.76562 2.4219 0 1-0.25781 1.8203-0.76562 2.4531-0.51172 0.625-1.1641 0.9375-1.9531 0.9375-0.44922 0-0.84375-0.089844-1.1875-0.26562-0.34375-0.1875-0.65625-0.46875-0.9375-0.84375v0.9375h-2.0625v-8.9375h2.0625z"/>
  </symbol>
  <symbol id="i" overflow="visible">
   <path d="m0.14062-6.4375h2.0625l1.7188 4.375 1.4844-4.375h2.0469l-2.7031 7.0469c-0.27344 0.71875-0.58984 1.2188-0.95312 1.5-0.36719 0.28906-0.84375 0.4375-1.4375 0.4375h-1.1875v-1.3594h0.65625c0.34375 0 0.59375-0.058594 0.75-0.17188 0.16406-0.10547 0.28906-0.30469 0.375-0.59375l0.0625-0.17188z"/>
  </symbol>
  <symbol id="h" overflow="visible">
   <path d="m0.98438-8.9375h2.0625v4.8594l2.3594-2.3594h2.3906l-3.1406 2.9531 3.3906 3.4844h-2.4844l-2.5156-2.6875v2.6875h-2.0625z"/>
  </symbol>
  <symbol id="g" overflow="visible">
   <path d="m6.9531-5.3594c0.25781-0.40625 0.56641-0.71094 0.92188-0.92188 0.36328-0.20703 0.75781-0.3125 1.1875-0.3125 0.73828 0 1.3008 0.23047 1.6875 0.6875 0.38281 0.46094 0.57812 1.1211 0.57812 1.9844v3.9219h-2.0625v-3.3594-0.15625-0.21875c0-0.45703-0.070313-0.78516-0.20312-0.98438-0.125-0.20703-0.33984-0.3125-0.64062-0.3125-0.38672 0-0.6875 0.16406-0.90625 0.48438-0.21094 0.3125-0.32031 0.77734-0.32812 1.3906v3.1562h-2.0625v-3.3594c0-0.70703-0.0625-1.1602-0.1875-1.3594-0.125-0.20703-0.34375-0.3125-0.65625-0.3125-0.39844 0-0.70312 0.16406-0.92188 0.48438-0.21094 0.32422-0.3125 0.78125-0.3125 1.375v3.1719h-2.0625v-6.4375h2.0625v0.95312c0.25-0.36328 0.53516-0.64062 0.85938-0.82812 0.33203-0.1875 0.69531-0.28125 1.0938-0.28125 0.44531 0 0.83594 0.10938 1.1719 0.32812 0.34375 0.21094 0.60156 0.51172 0.78125 0.90625z"/>
  </symbol>
  <symbol id="c" overflow="visible">
   <path d="m4.0469-5.125c-0.46094 0-0.80859 0.16797-1.0469 0.5-0.24219 0.32422-0.35938 0.79297-0.35938 1.4062 0 0.625 0.11719 1.1055 0.35938 1.4375 0.23828 0.32422 0.58594 0.48438 1.0469 0.48438 0.44531 0 0.78906-0.16016 1.0312-0.48438 0.23828-0.33203 0.35938-0.8125 0.35938-1.4375 0-0.61328-0.12109-1.082-0.35938-1.4062-0.24219-0.33203-0.58594-0.5-1.0312-0.5zm0-1.4688c1.1016 0 1.9688 0.30469 2.5938 0.90625 0.625 0.59375 0.9375 1.418 0.9375 2.4688 0 1.0625-0.3125 1.8984-0.9375 2.5-0.625 0.59375-1.4922 0.89062-2.5938 0.89062-1.1055 0-1.9766-0.29688-2.6094-0.89062-0.625-0.60156-0.9375-1.4375-0.9375-2.5 0-1.0508 0.3125-1.875 0.9375-2.4688 0.63281-0.60156 1.5039-0.90625 2.6094-0.90625z"/>
  </symbol>
  <symbol id="u" overflow="visible">
   <path d="m0.17188-6.4375h2.0625l1.6094 4.4531 1.5938-4.4531h2.0625l-2.5312 6.4375h-2.2656z"/>
  </symbol>
  <symbol id="t" overflow="visible">
   <path d="m1.375-1.5312h1.9531v-5.5469l-2 0.42188v-1.5l2-0.42188h2.0938v7.0469h1.9531v1.5312h-6z"/>
  </symbol>
  <symbol id="e" overflow="visible">
   <path d="m5.4062-4.2969c0-1.0703-0.10156-1.8281-0.29688-2.2656-0.19922-0.4375-0.53906-0.65625-1.0156-0.65625-0.46875 0-0.80859 0.21875-1.0156 0.65625-0.19922 0.4375-0.29688 1.1953-0.29688 2.2656 0 1.0859 0.097656 1.8516 0.29688 2.2969 0.20703 0.4375 0.54688 0.65625 1.0156 0.65625s0.80078-0.21875 1-0.65625c0.20703-0.44531 0.3125-1.2109 0.3125-2.2969zm2.2188 0.015625c0 1.418-0.30859 2.5156-0.92188 3.2969-0.61719 0.77344-1.4844 1.1562-2.6094 1.1562s-1.9961-0.38281-2.6094-1.1562c-0.61719-0.78125-0.92188-1.8789-0.92188-3.2969 0-1.4258 0.30469-2.5234 0.92188-3.2969 0.61328-0.76953 1.4844-1.1562 2.6094-1.1562s1.9922 0.38672 2.6094 1.1562c0.61328 0.77344 0.92188 1.8711 0.92188 3.2969z"/>
  </symbol>
  <symbol id="s" overflow="visible">
   <path d="m5.2188-8.9375v1.3438h-1.1406c-0.29297 0-0.49609 0.058594-0.60938 0.17188-0.11719 0.10547-0.17188 0.28906-0.17188 0.54688v0.4375h1.7656v1.4688h-1.7656v4.9688h-2.0469v-4.9688h-1.0312v-1.4688h1.0312v-0.4375c0-0.70703 0.19141-1.2266 0.57812-1.5625 0.39453-0.33203 1-0.5 1.8125-0.5z"/>
  </symbol>
  <symbol id="r" overflow="visible">
   <path d="m7.4531-3.9219v3.9219h-2.0625v-2.9844c0-0.5625-0.015625-0.94531-0.046875-1.1562-0.023438-0.21875-0.0625-0.375-0.125-0.46875-0.085938-0.13281-0.19531-0.23828-0.32812-0.3125-0.13672-0.070313-0.29297-0.10938-0.46875-0.10938-0.42969 0-0.76562 0.16797-1.0156 0.5-0.24219 0.32422-0.35938 0.77734-0.35938 1.3594v3.1719h-2.0625v-8.9375h2.0625v3.4531c0.3125-0.38281 0.64062-0.66406 0.98438-0.84375 0.35156-0.17578 0.73828-0.26562 1.1562-0.26562 0.73828 0 1.3008 0.23047 1.6875 0.6875 0.38281 0.46094 0.57812 1.1211 0.57812 1.9844z"/>
  </symbol>
  <symbol id="q" overflow="visible">
   <path d="m1.0781-8.5781h2.4688l3.125 5.8906v-5.8906h2.0938v8.5781h-2.4688l-3.125-5.8906v5.8906h-2.0938z"/>
  </symbol>
  <symbol id="p" overflow="visible">
   <path d="m0.92188-2.5v-3.9375h2.0625v0.64062c0 0.35547-0.007813 0.79688-0.015625 1.3281v1.0469c0 0.52344 0.015625 0.89844 0.046875 1.125 0.03125 0.21875 0.078125 0.38281 0.14062 0.48438 0.082031 0.13672 0.19141 0.24219 0.32812 0.3125 0.13281 0.074219 0.28906 0.10938 0.46875 0.10938 0.42578 0 0.75781-0.16016 1-0.48438 0.25-0.33203 0.375-0.78906 0.375-1.375v-3.1875h2.0625v6.4375h-2.0625v-0.9375c-0.3125 0.375-0.64062 0.65625-0.98438 0.84375-0.34375 0.17578-0.72656 0.26562-1.1406 0.26562-0.75 0-1.3203-0.22656-1.7031-0.6875-0.38672-0.45703-0.57812-1.1172-0.57812-1.9844z"/>
  </symbol>
  <symbol id="o" overflow="visible">
   <path d="m7.4531-3.9219v3.9219h-2.0625v-3c0-0.55078-0.015625-0.92969-0.046875-1.1406-0.023438-0.21875-0.0625-0.375-0.125-0.46875-0.085938-0.13281-0.19531-0.23828-0.32812-0.3125-0.13672-0.070313-0.29297-0.10938-0.46875-0.10938-0.42969 0-0.76562 0.16797-1.0156 0.5-0.24219 0.32422-0.35938 0.77734-0.35938 1.3594v3.1719h-2.0625v-6.4375h2.0625v0.95312c0.3125-0.38281 0.64062-0.66406 0.98438-0.84375 0.35156-0.17578 0.73828-0.26562 1.1562-0.26562 0.73828 0 1.3008 0.23047 1.6875 0.6875 0.38281 0.46094 0.57812 1.1211 0.57812 1.9844z"/>
  </symbol>
  <symbol id="n" overflow="visible">
   <path d="m1.0781-8.5781h3.6719c1.0938 0 1.9297 0.24609 2.5156 0.73438 0.58203 0.48047 0.875 1.168 0.875 2.0625 0 0.90625-0.29297 1.6055-0.875 2.0938-0.58594 0.48047-1.4219 0.71875-2.5156 0.71875h-1.4531v2.9688h-2.2188zm2.2188 1.6094v2.3906h1.2188c0.42578 0 0.75391-0.10156 0.98438-0.3125 0.23828-0.20703 0.35938-0.50391 0.35938-0.89062 0-0.38281-0.12109-0.67578-0.35938-0.875-0.23047-0.20703-0.55859-0.3125-0.98438-0.3125z"/>
  </symbol>
  <symbol id="m" overflow="visible">
   <path d="m0.98438-6.4375h2.0625v6.3281c0 0.85156-0.21094 1.5078-0.625 1.9688-0.41797 0.45703-1.0156 0.6875-1.7969 0.6875h-1.0156v-1.3594h0.35938c0.38281 0 0.64844-0.089844 0.79688-0.26562 0.14453-0.17969 0.21875-0.52344 0.21875-1.0312zm0-2.5h2.0625v1.6719h-2.0625z"/>
  </symbol>
  <symbol id="l" overflow="visible">
   <path d="m6.1875-6.2344v1.6719c-0.28125-0.1875-0.5625-0.32812-0.84375-0.42188s-0.57422-0.14062-0.875-0.14062c-0.57422 0-1.0234 0.17188-1.3438 0.51562-0.32422 0.33594-0.48438 0.79688-0.48438 1.3906 0 0.60547 0.16016 1.0781 0.48438 1.4219 0.32031 0.33594 0.76953 0.5 1.3438 0.5 0.32031 0 0.625-0.046875 0.90625-0.14062 0.28906-0.10156 0.5625-0.25 0.8125-0.4375v1.6875c-0.32422 0.11719-0.65234 0.20312-0.98438 0.26562-0.33594 0.0625-0.66406 0.09375-0.98438 0.09375-1.168 0-2.0781-0.29688-2.7344-0.89062-0.65625-0.60156-0.98438-1.4375-0.98438-2.5 0-1.0508 0.32812-1.875 0.98438-2.4688 0.65625-0.60156 1.5664-0.90625 2.7344-0.90625 0.33203 0 0.66016 0.03125 0.98438 0.09375 0.33203 0.0625 0.66016 0.15234 0.98438 0.26562z"/>
  </symbol>
 </defs>
 <g>
  <path d="m121.77 9.4102 228.23 228.23 230.59-228.23c25.883-28.234 68.234 14.117 40 42.352l-228.23 228.23 228.23 230.59c28.234 25.883-14.117 68.234-40 40l-230.59-228.23-228.23 228.23c-28.234 28.234-70.59-14.117-42.352-40l228.23-230.59-228.23-228.23c-28.234-28.234 14.117-70.59 42.352-42.352z" fill-rule="evenodd"/>
  <use x="70" y="595.292969" xlink:href="#v"/>
  <use x="78.632812" y="595.292969" xlink:href="#b"/>
  <use x="84.4375" y="595.292969" xlink:href="#a"/>
  <use x="92.414062" y="595.292969" xlink:href="#f"/>
  <use x="100.355469" y="595.292969" xlink:href="#d"/>
  <use x="105.976562" y="595.292969" xlink:href="#a"/>
  <use x="113.957031" y="595.292969" xlink:href="#k"/>
  <use x="126.472656" y="595.292969" xlink:href="#j"/>
  <use x="134.894531" y="595.292969" xlink:href="#i"/>
  <use x="146.660156" y="595.292969" xlink:href="#h"/>
  <use x="154.484375" y="595.292969" xlink:href="#f"/>
  <use x="162.421875" y="595.292969" xlink:href="#b"/>
  <use x="168.226562" y="595.292969" xlink:href="#a"/>
  <use x="176.203125" y="595.292969" xlink:href="#a"/>
  <use x="184.183594" y="595.292969" xlink:href="#g"/>
  <use x="196.441406" y="595.292969" xlink:href="#c"/>
  <use x="204.523437" y="595.292969" xlink:href="#u"/>
  <use x="212.191406" y="595.292969" xlink:href="#t"/>
  <use x="220.378906" y="595.292969" xlink:href="#e"/>
  <use x="228.566406" y="595.292969" xlink:href="#e"/>
  <use x="236.75" y="595.292969" xlink:href="#e"/>
  <use x="70" y="607.058594" xlink:href="#s"/>
  <use x="75.117188" y="607.058594" xlink:href="#b"/>
  <use x="80.921875" y="607.058594" xlink:href="#c"/>
  <use x="89.003906" y="607.058594" xlink:href="#g"/>
  <use x="105.355469" y="607.058594" xlink:href="#d"/>
  <use x="110.980469" y="607.058594" xlink:href="#r"/>
  <use x="119.355469" y="607.058594" xlink:href="#a"/>
  <use x="131.429688" y="607.058594" xlink:href="#q"/>
  <use x="141.277344" y="607.058594" xlink:href="#c"/>
  <use x="149.359375" y="607.058594" xlink:href="#p"/>
  <use x="157.734375" y="607.058594" xlink:href="#o"/>
  <use x="170.207031" y="607.058594" xlink:href="#n"/>
  <use x="178.828125" y="607.058594" xlink:href="#b"/>
  <use x="184.632812" y="607.058594" xlink:href="#c"/>
  <use x="192.714844" y="607.058594" xlink:href="#m"/>
  <use x="196.746094" y="607.058594" xlink:href="#a"/>
  <use x="204.726562" y="607.058594" xlink:href="#l"/>
  <use x="211.699219" y="607.058594" xlink:href="#d"/>
 </g>
</svg>
