<svg xmlns="http://www.w3.org/2000/svg" width="42.704" height="41.119" viewBox="0 0 42.704 41.119">
  <g id="search_icon" data-name="search icon" transform="translate(0.5 0.5)">
    <path id="ic_search_24px" d="M32.648,28.11H30.774l-.664-.616a14.452,14.452,0,0,0,3.724-9.656C33.834,9.643,26.932,3,18.417,3S3,9.643,3,17.838,9.9,32.676,18.417,32.676A15.7,15.7,0,0,0,28.45,29.092l.64.639v1.8L40.95,42.925l3.534-3.4Zm-14.231,0A10.465,10.465,0,0,1,7.744,17.838,10.465,10.465,0,0,1,18.417,7.565,10.465,10.465,0,0,1,29.09,17.838,10.465,10.465,0,0,1,18.417,28.11Z" transform="translate(-3 -3)" fill="#37406e" stroke="#37406e" stroke-width="1"/>
  </g>
</svg>
